<svg xmlns="http://www.w3.org/2000/svg" xmlns:xlink="http://www.w3.org/1999/xlink" width="500" zoomAndPan="magnify" viewBox="0 0 375 374.999991" height="500" preserveAspectRatio="xMidYMid meet" version="1.0"><defs><clipPath id="44f33f759c"><path d="M 54.816406 54.816406 L 320.316406 54.816406 L 320.316406 320.316406 L 54.816406 320.316406 Z M 54.816406 54.816406 " clip-rule="nonzero"/></clipPath></defs><g clip-path="url(#44f33f759c)"><path fill="#2478d4" d="M 187.496094 54.816406 C 151.21875 54.816406 117.441406 69.394531 92.726562 94.488281 L 92.726562 64.296875 C 92.726562 59.0625 88.480469 54.816406 83.25 54.816406 C 78.019531 54.816406 73.773438 59.0625 73.773438 64.296875 L 73.773438 121.15625 C 73.773438 121.5 73.925781 121.800781 73.960938 122.125 C 74.039062 122.730469 74.132812 123.300781 74.320312 123.886719 C 74.53125 124.550781 74.796875 125.15625 75.136719 125.765625 C 75.363281 126.179688 75.628906 126.558594 75.933594 126.9375 C 76.425781 127.566406 76.996094 128.113281 77.65625 128.605469 C 77.828125 128.738281 77.941406 128.949219 78.132812 129.0625 C 78.285156 129.15625 78.472656 129.15625 78.625 129.25 C 79.363281 129.6875 80.121094 129.953125 80.957031 130.179688 C 81.371094 130.273438 81.769531 130.386719 82.1875 130.425781 C 82.546875 130.464844 82.871094 130.636719 83.25 130.636719 L 140.113281 130.636719 C 145.34375 130.636719 149.589844 126.390625 149.589844 121.15625 C 149.589844 115.925781 145.34375 111.679688 140.113281 111.679688 L 102.507812 111.679688 C 123.945312 87.761719 154.515625 73.773438 187.496094 73.773438 C 250.21875 73.773438 301.222656 124.777344 301.222656 187.496094 C 301.222656 250.21875 250.21875 301.222656 187.496094 301.222656 C 124.777344 301.222656 73.773438 250.21875 73.773438 187.496094 C 73.773438 182.265625 69.527344 178.019531 64.296875 178.019531 C 59.0625 178.019531 54.816406 182.265625 54.816406 187.496094 C 54.816406 260.640625 114.335938 320.175781 187.496094 320.175781 C 260.640625 320.175781 320.175781 260.640625 320.175781 187.496094 C 320.175781 114.335938 260.640625 54.816406 187.496094 54.816406 Z M 187.496094 54.816406 " fill-opacity="1" fill-rule="nonzero"/></g><path fill="#2478d4" d="M 178.230469 111.679688 C 172.996094 111.679688 168.753906 115.925781 168.753906 121.15625 L 168.753906 196.976562 C 168.753906 202.207031 172.996094 206.453125 178.230469 206.453125 L 253.835938 206.453125 C 259.070312 206.453125 263.316406 202.207031 263.316406 196.976562 C 263.316406 191.742188 259.070312 187.496094 253.835938 187.496094 L 187.707031 187.496094 L 187.707031 121.15625 C 187.707031 115.925781 183.460938 111.679688 178.230469 111.679688 Z M 178.230469 111.679688 " fill-opacity="1" fill-rule="nonzero"/></svg>